<svg xmlns="http://www.w3.org/2000/svg" width="900" height="900" viewBox="0 0 900 900"><rect width="900" height="900" fill="#777bb3"/><path fill="#fff" d="M746 708q0-12-5-23l-4-15-12-24a90 90 0 0 0-68-13c-8 2-24 7-39 20a179 179 0 0 0-53 115q0 13 3 26l7 15h1c20 27 55 34 85 21 21-9 71-74 79-94q6-15 6-28M355 828l16-10 10-9 9-15v-1l1-1v-1l2-4 2-8 1-2q3-11 2-20a113 113 0 0 0-4-31l-4-14v-1h-1l-14-34-3-5-1-1-2-3-2-3v-1l-1-1-4-6h-1v-1l-1-1-4-5-1-1-17-14-1-1h-1l-6-3-2-1-15-6-4-1a112 112 0 0 0-114 57 39 39 0 0 0-5 17q-1 20 15 35c60 49 37 63 67 84v1l4 2 2 1 2 2 2 1 5 2 3 2h1l5 2h1l3 1 2 1 3 1h2l13 1 1 1h5l4-1h1-1 5l6-1h1zm298-459-3 12c-6 15-15 31-26 33q-24 2-52-21-6-5-7-13 0-6 5-11c5-4 28-11 49-13 10-2 26-2 29-1q6 5 5 14m-51-147c25 12 22 34 22 48v8q-4-4-18-3h-7q-13-8-20-25l-1-2-1-2-1-7 1-6 3-5-4-3h-2c5-6 18-7 28-3m-132 61q-2 15-8 20a175 175 0 0 0-51 15l-5-4q-14-13-13-31 0-18 15-28c25-18 58-13 57-7l-1 1-4 6c0 4 8 6 10 21zm211 75c-6-21-39-62-42-64-8-8 2-39-15-73-17-35-62-72-82-88 6 4 42 18 58 38 2-2 2-12 4-15-14-19-16-52-16-61 0-16-8-35-8-35l6 6q8 9 12 25 7 34 26 56 29 37 48 37h1l2-1h1l3-2 2-5 1-2c3-20-20-68-49-96-38-37-48-33-70-25-18 7-28 58-74 57l-39-2 10-13-29 14-1-1 10-16-24 17c2-11 9-18 10-18-1 0-17 3-36 24-23 7-29 11-47 19-29-7-43-17-57-36-10-15-28-17-46-9l-61 26h23c-16 6-31 14-31 14h16l-16 12c-14 10-25 22-26 22l19-7c-6 13-16 22-17 36l1 6c2 16 21 48 46 68 2 2 36 34 62 21s36-25 40-42l3-17c0-15-4-32-11-63l-17-59 1-1c8 18 30 65 38 96q12 43 9 64-2 14-5 19c-19 28-67 31-89 16-3 53 9 76 13 88l-1 4v1c1 14 7 33 7 33s1-11 5-17c1 13 8 29 8 29v-5q0-6 3-13l11 15c4 13 12 24 13 24l-1-12v-3c20 19 23 47 25 68l1 9c13 6 207 96 285 17l9-12 12-21 10-29q-14-3-20-7l-2 5q-12 18-33 28a79 79 0 0 1-63 5q-37-8-67-33l-35-30-9-10-2-4v-5l12 9 37 23 6 3 8 4 16 8 27 10q16 5 38 3a85 85 0 0 0 29-9 180 180 0 0 0 51-45l2 4v1l-5 12v2l-3 5v2c2 0 16 6 30 7l1-1h4l10-2 9-5 1-1 6-10 3-8h1q8-20 9-43 1-18-5-36"/><path fill="#fff" d="M596 559c-50 52-165 41-284-31l-5-3a78 78 0 0 1-35 39 210 210 0 0 1-41 19l-1 1h-2l-5 3c-12 7-30 19-40 35-25 41-10 86-8 91a118 118 0 0 1 119-98l16 1h1l7 1h1l3 1v-1l4 1 1 1 12 4h1l3 2 2 1h1l1 1h1l3 2v1h2l2 2 1 1 1 1h1l1 1 1 1 3 3 2 1 3 3 2 2 2 1 1 2 3 3 1 1v1l1 1 1 1v1l1 1 1 2 1 1 1 1v1l4 7 2 3v2l2 3 1 3 1 2v1l2 4 2 5v2l1 2v2l1 1v2l1 1v1l2 7v1l3 22v22c-2 22-9 39-13 47l45 5 38-1 30-3 45-10v-1l-2-7a149 149 0 0 1 3-71v-1l1-1v-2l2-4v-2l4-10 1-2 1-3 2-3v-2l6-11 1-1 2-3 1-1 2-3v-1l7-9 1-1 2-3 1-1 2-2 1-1 2-2 2-2 3-3 2-1 5-4 2-2 1-1 3-1 1-1v-15l-1-8v-4l-1-4-1-7v-1l-1-3-1-3v-1l-1-5v-1l-1-4-1-2-2-7 4 6 3 6v1a187 187 0 0 1 17 44l4-1q25-11 51-8a90 90 0 0 1 45 16h1l9 7a282 282 0 0 0-122-133q-10 31-24 44"/><path fill="#777bb3" fill-rule="evenodd" d="M472 674q-4-5-11-5h-18l-9 47h9l2-12h8l8-1 7-5q3-1 4-6l2-6q1-7-2-12m76 0q-3-5-11-5h-17l-9 47h9l2-12h8l8-1 7-5 4-6 2-6q1-7-3-12m-57-5 2-12h-9l-9 47h9l5-27h7l5 1v5l-4 21h9l4-22q2-7-2-10-3-3-9-3zm-39 8h2l8 1q4 0 3 8t-6 9l-10 1h-2l4-19zm77 0h1l9 1q3 0 2 8t-5 9l-11 1h-1l4-19z" clip-rule="evenodd"/></svg>
